<?xml version="1.0" encoding="UTF-8"?>
<!-- Generator: Adobe Illustrator 16.0.4, SVG Export Plug-In . SVG Version: 6.00 Build 0)  -->
<!DOCTYPE svg PUBLIC "-//W3C//DTD SVG 1.1//EN" "http://www.w3.org/Graphics/SVG/1.1/DTD/svg11.dtd" [
	<!ENTITY ns_extend "http://ns.adobe.com/Extensibility/1.0/">
	<!ENTITY ns_ai "http://ns.adobe.com/AdobeIllustrator/10.0/">
	<!ENTITY ns_graphs "http://ns.adobe.com/Graphs/1.0/">
	<!ENTITY ns_vars "http://ns.adobe.com/Variables/1.0/">
	<!ENTITY ns_imrep "http://ns.adobe.com/ImageReplacement/1.0/">
	<!ENTITY ns_sfw "http://ns.adobe.com/SaveForWeb/1.0/">
	<!ENTITY ns_custom "http://ns.adobe.com/GenericCustomNamespace/1.0/">
	<!ENTITY ns_adobe_xpath "http://ns.adobe.com/XPath/1.0/">
]>
<svg version="1.1" id="Capa_1" xmlns:x="http://ns.adobe.com/Extensibility/1.0/" xmlns:i="http://ns.adobe.com/AdobeIllustrator/10.0/" xmlns:graph="http://ns.adobe.com/Graphs/1.0/" xmlns="http://www.w3.org/2000/svg" xmlns:xlink="http://www.w3.org/1999/xlink" x="0px" y="0px" width="420px" height="56px" viewBox="0 0 420 56" enable-background="new 0 0 420 56" xml:space="preserve">
<metadata>
	<sfw xmlns="http://ns.adobe.com/SaveForWeb/1.0/">
		<slices/>
		<sliceSourceBounds width="420" height="55.767" bottomLeftOrigin="true" x="430" y="-427.767"/>
	</sfw>
</metadata>
<g>
	<g>
		<path fill="#211915" d="M151.851,52.884h17.694v-2.302h-3.797c-0.137,0-0.476-0.068-0.948-0.204    c-0.679-0.135-1.222-0.406-1.561-0.609c-0.541-0.546-0.746-1.224-0.746-2.512V7.601l15.254,45.283h5.019l15.455-45.351v39.724    v0.882c0,0.611-0.271,1.22-0.812,1.63c-0.408,0.338-1.425,0.677-2.373,0.813h-0.205h-3.729v2.302h25.02v-2.302h-3.732    c-2.237,0-3.526-1.288-3.526-3.325V9.77c0-1.492,0.139-1.965,0.884-2.44c0.405-0.405,1.423-0.746,2.509-0.88h0.134h3.798V4.007    h-20.339l-11.863,34.575L172.46,4.007h-20.542v2.442h3.73c2.031,0,3.389,1.287,3.389,3.321v36.133l0.068,1.354    c0,1.966-1.491,3.325-3.524,3.325h-3.73V52.884L151.851,52.884z"/>
		<path fill="#211915" d="M217.097,6.245h3.865c0.136,0,0.543,0.135,0.947,0.272c0.61,0.135,1.154,0.339,1.493,0.609    c0.542,0.474,0.744,0.948,0.744,1.762v0.812v30.167c0,5.561,1.488,8.745,5.019,10.714c3.185,1.965,8.336,3.117,13.286,3.117    c5.624,0,11.186-1.627,13.965-3.931c1.425-1.289,2.576-3.12,3.117-5.355c0.543-1.833,0.816-4.137,0.816-6.576V9.634    c0-2.033,1.423-3.389,3.593-3.389h3.795V4.007h-17.83v2.238h3.798c1.897,0,3.186,1.423,3.186,3.389v28.542    c0,7.728-3.186,10.912-11.184,10.912c-5.29,0-9.221-1.831-10.442-5.014c-0.405-1.021-0.542-2.376-0.542-5.288V9.634    c0-1.965,1.357-3.389,3.459-3.389h3.725V4.007h-24.81V6.245L217.097,6.245z"/>
		<path fill="#211915" d="M268.703,52.884h17.968v-2.302h-3.864c-0.068,0-0.479-0.068-1.016-0.137    c-0.614-0.202-1.223-0.406-1.63-0.677c-0.608-0.546-0.814-1.087-0.814-2.512V13.906l24.881,38.978h7.525V9.77V8.821    c0-1.017,0.812-1.83,2.305-2.237c0.408-0.066,0.881-0.204,0.95-0.204h3.794V4.007h-17.488V6.38h3.727    c2.102,0,3.456,1.356,3.456,3.39v30.235L285.448,4.007h-16.676v2.442h3.729c2.034,0,3.458,1.287,3.458,3.321v36.202v1.218v0.067    c0,1.966-1.493,3.325-3.523,3.325h-3.732V52.884L268.703,52.884z"/>
		<path fill-rule="evenodd" clip-rule="evenodd" fill="#211915" d="M320.105,52.884h26.3c13.629,0,23.456-10.508,23.456-25.081    c0-8.406-3.864-15.865-10.438-20.134c-3.935-2.506-8.203-3.661-13.762-3.661h-25.557V6.38h3.796c2.035,0,3.389,1.289,3.389,3.39    v33.829v3.658c0,1.288-0.27,2.037-0.881,2.578c-0.407,0.271-1.493,0.61-2.44,0.882h-0.136h-3.728V52.884L320.105,52.884z     M337.798,47.596V9.092c0-2.304,0.543-2.914,2.645-2.914h6.236c3.457,0,6.779,1.694,8.541,4.405    c1.22,1.967,2.102,4.609,2.646,8.476c0.338,2.71,0.539,6.711,0.539,9.625c0,15.118-3.931,22.101-12.472,22.101h-5.422    C338.476,50.784,337.798,50.039,337.798,47.596L337.798,47.596z"/>
		<path fill-rule="evenodd" clip-rule="evenodd" fill="#211915" d="M374.373,28.479c0,14.984,9.154,25.083,22.78,25.083    c13.628,0,22.847-10.099,22.847-25.083c0-7.05-2.104-13.219-6.17-17.965c-4.067-4.812-9.491-7.186-16.677-7.186    c-7.187,0-12.406,2.307-16.746,7.186C376.477,15.058,374.373,21.43,374.373,28.479L374.373,28.479z M387.054,14.312    c1.352-5.355,4.811-8.134,10.1-8.134c5.288,0,8.677,2.779,10.169,8.134c0.946,3.457,1.22,7.118,1.22,14.168    c0,6.982-0.273,10.577-1.22,14.101c-1.425,5.288-4.881,8.137-10.169,8.137c-5.289,0-8.678-2.849-10.1-8.137    c-1.019-3.455-1.357-7.05-1.357-14.101C385.696,21.362,386.035,17.838,387.054,14.312L387.054,14.312z"/>
		<path fill="#211915" d="M0,52.884h43.929l1.355-15.725h-2.577c-1.017,8.744-6.575,13.558-15.794,13.558h-6.779    c-1.83,0-2.577-0.882-2.577-2.849V27.396h3.527c3.592,0,6.779,0.813,8.203,2.102c1.421,1.354,2.439,3.863,2.439,6.169    c0,0.406,0,0.883-0.067,1.357h2.507V15.667l-2.507-0.067v0.542c0,5.898-3.73,9.086-10.575,9.086h-3.527V8.549    c0-1.828,0.544-2.371,2.238-2.371h6.778c5.356,0,8.136,0.813,11.05,3.253c2.168,1.763,3.864,4.407,4.27,6.779    c0.135,0.61,0.205,1.422,0.272,2.442h2.848L43.86,4.007H0V6.38h3.796c1.967,0,3.322,1.221,3.322,3.321v36.336v1.22v0.068    c0,1.969-1.355,3.257-3.389,3.257H0V52.884L0,52.884z"/>
		<path fill="#211915" d="M46.002,6.38h3.73c2.1,0,3.456,1.289,3.456,3.39v36.133v1.286c0,1.355-0.272,2.033-0.815,2.579    c-0.475,0.338-1.491,0.677-2.438,0.813h-0.135h-3.798v2.302h41.962l1.017-19.252h-2.779c-1.627,10.849-6.847,17.085-14.575,17.085    h-5.423c-1.833,0-2.646-0.882-2.646-2.916V9.77c0-2.034,1.358-3.39,3.392-3.39h3.797V4.007H46.002V6.38L46.002,6.38z"/>
		<g>
			<path fill="#6887A6" d="M146.37,40.062c1.608-3.312,2.588-7.002,2.762-10.896h-26.233v11.112h23.36     C146.258,40.278,146.248,40.306,146.37,40.062z"/>
			<path fill="#6887A6" d="M119.957,14.419H96.793c-1.95,3.542-3.158,7.549-3.405,11.814h26.568V14.419z"/>
			<path fill="#6887A6" d="M122.898,14.419v11.814h26.216c-0.247-4.266-1.457-8.272-3.399-11.814H122.898z"/>
			<path fill="#6887A6" d="M119.957,29.166H93.372c0.179,3.979,1.198,7.738,2.867,11.112h23.719V29.166z"/>
			<path fill="#6887A6" d="M119.957,43.211H97.924c4.771,7.242,12.821,12.134,22.033,12.556V43.211z"/>
			<path fill="#6887A6" d="M122.898,11.484h20.946c-4.777-6.564-12.338-10.966-20.946-11.468V11.484z"/>
			<path fill="#6887A6" d="M122.898,43.211v12.535c9.068-0.529,16.97-5.383,21.679-12.535H122.898z"/>
			<path fill="#6887A6" d="M119.957,11.484V0c-8.753,0.398-16.454,4.833-21.293,11.484H119.957z"/>
		</g>
	</g>
</g>
</svg>